<svg id="SvgjsSvg1037" width="256" height="256" xmlns="http://www.w3.org/2000/svg" version="1.1" xmlns:xlink="http://www.w3.org/1999/xlink" xmlns:svgjs="http://svgjs.com/svgjs"><defs id="SvgjsDefs1038"></defs><g id="SvgjsG1039"><svg xmlns="http://www.w3.org/2000/svg" data-name="glipy copy" viewBox="0 0 64 64" width="256" height="256"><defs><linearGradient id="a" x1="4.04" x2="59.96" y1="32" y2="32" gradientUnits="userSpaceOnUse"><stop offset="0" stop-color="#00c0ff" class="stopColor00c0ff svgShape"></stop><stop offset="1" stop-color="#5558ff" class="stopColor5558ff svgShape"></stop></linearGradient></defs><path fill="url(#a)" d="M31.25159,55.0238a16.8148,16.8148,0,0,1,0-23.72989c13.29233-14.41419-6.461-34.19612-20.89715-20.897a14.778,14.778,0,0,0-.10965,20.77735v-2.364a.99766.99766,0,0,1,1.99495.00006v4.7878a1.00038,1.00038,0,0,1-.99748.99747H6.46445a.99766.99766,0,0,1-.00007-1.99494h2.374A16.81,16.81,0,0,1,8.9381,8.98042C25.35856-6.08562,47.72976,16.30361,32.668,32.71037c-13.29245,14.41491,6.46172,34.19581,20.89722,20.897A14.778,14.778,0,0,0,53.67485,32.83v2.36407a.99748.99748,0,0,1-1.99495,0V30.40614a1.00038,1.00038,0,0,1,.99748-.99747h4.77788a.99766.99766,0,0,1-.00006,1.99495H55.08127C69.95577,47.861,47.578,70.02755,31.25159,55.0238ZM25.586,29.289l-.59846-.60845a8.88068,8.88068,0,0,1-3.90016,1.03735l-.21942.82786a1.79349,1.79349,0,0,1-2.18447,1.26687l-1.53609-.41892a1.78911,1.78911,0,0,1-1.26681-2.18447l.2294-.82792a8.80994,8.80994,0,0,1-2.85276-2.85276l-.81794.22934a1.80435,1.80435,0,0,1-2.19445-1.26675L9.83585,22.955a1.79371,1.79371,0,0,1,1.26681-2.18447l.82786-.2294A9.013,9.013,0,0,1,12.96794,16.651l-.59853-.59846a1.782,1.782,0,0,1,0-2.52363l1.12716-1.12716a1.782,1.782,0,0,1,2.52363,0l.60845.60845a8.8396,8.8396,0,0,1,3.89017-1.03735l.21942-.82792a1.79834,1.79834,0,0,1,2.18447-1.26675l1.53609.41892a1.79362,1.79362,0,0,1,1.26681,2.18447l-.21942.82792A8.97432,8.97432,0,0,1,28.349,16.16224l.82792-.21947a1.79566,1.79566,0,0,1,2.18447,1.25682l.40894,1.53615a1.78586,1.78586,0,0,1-1.26681,2.18447l-.82786.2294a8.83959,8.83959,0,0,1-1.03741,3.89012l.59852.59852a1.782,1.782,0,0,1,0,2.52357L28.11957,29.289A1.79408,1.79408,0,0,1,25.586,29.289Zm-8.2789-11.93986C12.825,22.07835,19.56,28.82555,24.29923,24.34154,28.786,19.60762,22.03774,12.86572,17.30705,17.34912Zm1.41639,1.41639c-2.68552,2.776,1.38425,6.86263,4.15939,4.15958A2.94134,2.94134,0,0,0,18.72344,18.76551ZM38.3337,34.71524l.59846.60844a8.88148,8.88148,0,0,1,3.90021-1.03735c.16584-.68686.34928-1.56927,1.04728-1.91507.79334-.5707,2.0719.08067,2.89264.23932a1.74691,1.74691,0,0,1,1.08721.82792,2.609,2.609,0,0,1-.0498,2.18447,8.80868,8.80868,0,0,1,2.85276,2.85276l.81794-.2294a1.80448,1.80448,0,0,1,2.19445,1.26676l.40894,1.53614A1.79374,1.79374,0,0,1,52.817,43.23371l-.82786.22939a9.01326,9.01326,0,0,1-1.03741,3.89018l.59852.59846a1.782,1.782,0,0,1,0,2.52358l-1.12715,1.12715a1.782,1.782,0,0,1-2.52364,0L47.291,50.994a8.83866,8.83866,0,0,1-3.89017,1.03735l-.21941.82792A1.791,1.791,0,0,1,40.997,54.12611c-.78446-.264-2.22594-.37448-2.62337-1.24691a2.6541,2.6541,0,0,1,.03982-2.18441A8.976,8.976,0,0,1,35.57067,47.842l-.82792.21942a1.79567,1.79567,0,0,1-2.18447-1.25683l-.40894-1.53609a1.78584,1.78584,0,0,1,1.26682-2.18447l.82786-.2294a8.83953,8.83953,0,0,1,1.03741-3.89017l-.59852-.59846a1.78211,1.78211,0,0,1,0-2.52364l1.11716-1.12715A1.79407,1.79407,0,0,1,38.3337,34.71524Zm8.279,11.93979c4.49186-4.72789-2.25808-11.47789-6.99218-6.99242C35.13732,44.39556,41.87685,51.1377,46.61272,46.655Zm-1.4164-1.41645A2.94138,2.94138,0,0,0,41.03687,41.079C38.33418,43.85335,42.42088,47.93165,45.19632,45.23858Z"></path></svg></g></svg>