<svg id="SvgjsSvg1408" width="256" height="256" xmlns="http://www.w3.org/2000/svg" version="1.1"
     xmlns:xlink="http://www.w3.org/1999/xlink" xmlns:svgjs="http://svgjs.com/svgjs">
    <defs id="SvgjsDefs1409"></defs>
    <g id="SvgjsG1410">
        <svg xmlns="http://www.w3.org/2000/svg" fill-rule="evenodd" clip-rule="evenodd"
             image-rendering="optimizeQuality" shape-rendering="geometricPrecision" text-rendering="geometricPrecision"
             viewBox="0 0 512 512" width="256" height="256">
            <defs>
                <linearGradient id="a" x1="256" x2="256" y1="63.4" y2="448.8" gradientUnits="userSpaceOnUse">
                    <stop offset="0" stop-color="#fff" class="stopColor5cc6d0 svgShape"></stop>
                    <stop offset=".49" stop-color="#fff" class="stopColora53692 svgShape"></stop>
                    <stop offset="1" stop-color="#fff" class="stopColorf06277 svgShape"></stop>
                </linearGradient>
            </defs>
            <path fill="url(#a)"
                  d="M460.83 378.84l0 -221.57c0,-1.61 -1.35,-2.96 -2.95,-2.96l-68.51 0c36.14,92.27 -30.37,194.91 -134.6,195.2 -98.28,0.27 -168.86,-101.5 -132.14,-195.2l-68.51 0c-1.6,0 -2.95,1.35 -2.95,2.95l0 221.58 409.66 0zm-423.65 0l0 -221.57c0,-9.35 7.6,-16.95 16.94,-16.95l74.89 0c53.55,-102.56 200.44,-102.56 253.98,0l74.89 0c9.34,0 16.94,7.6 16.94,16.95l0 221.57 30.03 0c3.87,0 7,3.13 7,7l0 27.98c0,19.29 -15.69,34.98 -34.98,34.98l-441.74 0c-19.29,0 -34.98,-15.69 -34.98,-34.98l0 -27.98c0,-3.87 3.13,-7 7,-7l30.03 0zm-23.04 13.99l0 20.99c0,11.58 9.42,20.99 20.99,20.99l441.74 0c11.57,0 20.99,-9.41 20.99,-20.99l0 -20.99 -177.99 0 0 24c0,3.87 -3.13,7 -7,7l-113.74 0c-3.86,0 -7,-3.13 -7,-7l0 -24 -177.99 0zm291.74 0l-99.75 0 0 17.01 99.75 0 0 -17.01zm-49.88 -315.64c-71.23,0 -129.17,57.94 -129.17,129.17 0,56.97 37.07,105.44 88.36,122.56l0 -105.37c0,-2.6 -1.15,-4.94 -2.97,-6.54 -11.72,26.6 -51.78,18.24 -51.78,-10.86 0,-14.9 12.12,-27.03 27.03,-27.03 13.57,0 24.83,10.05 26.74,23.1 8.76,3.17 14.97,11.57 14.97,21.32l0 109.18c5.95,1.27 12.06,2.12 18.28,2.52l0 -155.79 -21.81 -13.27c-20.05,19.38 -53.78,5.15 -53.78,-22.81 0,-17.5 14.23,-31.74 31.73,-31.74 22.24,0 37.43,22.31 29.73,42.85l24.76 15.06c2.09,1.27 3.36,3.54 3.36,5.98l0 159.89c6.22,-0.26 12.32,-0.96 18.29,-2.07l0 -103.62c0,-9.75 6.2,-18.15 14.96,-21.33 1.91,-13.04 13.17,-23.1 26.74,-23.1 14.91,0 27.03,12.13 27.03,27.04 0,29.1 -40.06,37.45 -51.78,10.86 -1.82,1.59 -2.96,3.94 -2.96,6.53l0 100.19c52.88,-16.18 91.44,-65.44 91.44,-123.55 0,-71.23 -57.94,-129.17 -129.17,-129.17zm-52.4 48.44c-23.35,0 -23.35,35.49 0,35.49 23.36,0 23.36,-35.49 0,-35.49zm-16.13 67.48c-17.16,0 -17.16,26.08 0,26.08 17.16,0 17.16,-26.08 0,-26.08zm133.97 6.18c-17.16,0 -17.16,26.07 0,26.07 17.17,0 17.17,-26.07 0,-26.07z"></path>
        </svg>
    </g>
</svg>