<svg id="SvgjsSvg1057" width="256" height="256" xmlns="http://www.w3.org/2000/svg" version="1.1" xmlns:xlink="http://www.w3.org/1999/xlink" xmlns:svgjs="http://svgjs.com/svgjs"><defs id="SvgjsDefs1058"></defs><g id="SvgjsG1059"><svg xmlns="http://www.w3.org/2000/svg" data-name="Layer 1" viewBox="0 0 512 512" width="256" height="256"><path fill="#0635c9" d="M437.023 143.9a18.079 18.079 0 0 0-17.018 12.065h-23.161a19.661 19.661 0 0 0-19.1 15.4 7.6 7.6 0 0 1-7.379 5.947h-17.687V92.675a41.911 41.911 0 0 0-41.864-41.863H167.361A41.911 41.911 0 0 0 125.5 92.675v84.638h-17.685a7.594 7.594 0 0 1-7.379-5.947 19.662 19.662 0 0 0-19.105-15.4h-23.16a18.064 18.064 0 1 0 0 12h23.16a7.594 7.594 0 0 1 7.379 5.947 19.662 19.662 0 0 0 19.105 15.4H125.5v36.093h-1.23a12.064 12.064 0 0 1-11.166-7.444 24.033 24.033 0 0 0-22.243-14.829H86.94a18.064 18.064 0 1 0 0 12h3.921a12.064 12.064 0 0 1 11.166 7.444 24.035 24.035 0 0 0 22.243 14.829h1.23v13.308l-21.31-.1a25.208 25.208 0 0 0-22.2 13.241 13.22 13.22 0 0 1-11.649 6.945H62.2a18.056 18.056 0 1 0 .17 12h7.967a25.207 25.207 0 0 0 22.2-13.24 13.21 13.21 0 0 1 11.616-6.945l21.339.1v36.92h-1.482a28.135 28.135 0 0 0-26.841 20.083 16.065 16.065 0 0 1-15.329 11.47h-8.7a18.064 18.064 0 1 0 0 12h8.7a28.135 28.135 0 0 0 26.842-20.088 16.066 16.066 0 0 1 15.328-11.469h1.49v94.845a41.911 41.911 0 0 0 41.863 41.864h143.451a41.746 41.746 0 0 0 32.345-15.285 6 6 0 1 0-9.267-7.623 29.785 29.785 0 0 1-23.078 10.908H167.361a29.9 29.9 0 0 1-29.861-29.861v-22.69h166.972v-12H137.5V116.607h145.52a6 6 0 0 0 0-12H137.5V92.675a29.9 29.9 0 0 1 29.863-29.863h143.451a29.9 29.9 0 0 1 29.864 29.863v11.932h-11.932a6 6 0 0 0 0 12h11.932v139.778a6 6 0 0 0 12 0v-18.979h1.227a24.035 24.035 0 0 0 22.244-14.829 12.064 12.064 0 0 1 11.166-7.444h3.92a18.065 18.065 0 1 0 0-12h-3.92a24.033 24.033 0 0 0-22.243 14.829 12.067 12.067 0 0 1-11.167 7.444h-1.227v-36.093h17.683a19.664 19.664 0 0 0 19.105-15.4 7.593 7.593 0 0 1 7.378-5.947h23.161a18.056 18.056 0 1 0 17.018-24.066ZM41.152 168.032a6.065 6.065 0 1 1 6.065-6.064 6.07 6.07 0 0 1-6.065 6.064Zm28.77 47.168a6.065 6.065 0 1 1 6.064-6.064 6.071 6.071 0 0 1-6.064 6.064Zm-24.651 67.9a6.065 6.065 0 1 1 6.064-6.065 6.072 6.072 0 0 1-6.064 6.059Zm10.846 60.157a6.064 6.064 0 1 1 6.065-6.064 6.071 6.071 0 0 1-6.065 6.058Zm352.137-140.189a6.065 6.065 0 1 1-6.065 6.065 6.071 6.071 0 0 1 6.065-6.065Zm28.769-35.036a6.065 6.065 0 1 1 6.065-6.064 6.07 6.07 0 0 1-6.065 6.064Z" class="color0635c9 svgShape"></path><path fill="#0635c9" d="M316.644 110.607a6 6 0 0 0-6-6h-9.966a6 6 0 0 0 0 12h9.966a6 6 0 0 0 6-6zm-97.005 299.458a19.449 19.449 0 1 0 19.449-19.448 19.471 19.471 0 0 0-19.449 19.448zm26.9 0a7.449 7.449 0 1 1-7.448-7.448 7.456 7.456 0 0 1 7.445 7.448zm58.221-159.918a75.992 75.992 0 1 0-48.153 70.717L252.2 309.7a64.111 64.111 0 1 1 29.618-23.8l9.941 6.722a75.546 75.546 0 0 0 13.001-42.475z" class="color0635c9 svgShape"></path><path fill="#0635c9" d="M278.059 276.731a55.914 55.914 0 1 0-33.94 27.283l-3.285-11.542a43.988 43.988 0 1 1 26.666-21.445Z" class="color0635c9 svgShape"></path><path fill="#1ae5be" d="M410.387 243.5a25.979 25.979 0 0 0-45.838 9.461 26.007 26.007 0 0 0-38.416 19.309c-.107.8-.172 1.6-.2 2.4a25.944 25.944 0 0 0-30.7 17.974l-45.235-57.338a26 26 0 1 0-41.242 31.67l83.704 106.731a40.035 40.035 0 0 0-26.374 23.9 6 6 0 0 0 3.146 7.667l76.308 33.98A86 86 0 0 0 471.187 322.9ZM300.784 384.32l26.36 33.608-47.258-21.044a28.018 28.018 0 0 1 20.898-12.564ZM447.9 433.935a74.1 74.1 0 0 1-103.786-13.814l-125.877-160.49a14 14 0 1 1 22.283-16.956l101.6 128.787a6.048 6.048 0 0 0 .413.471c.015.016.032.029.047.045q.213.213.441.4c.051.042.1.079.158.12.121.093.244.183.37.266.062.04.125.078.188.115.124.076.251.146.38.212.064.032.128.064.193.094.137.063.275.12.415.172.06.022.119.046.179.067.166.056.335.1.5.145.035.009.069.02.105.028a6.059 6.059 0 0 0 .642.109h.04c.2.021.393.031.59.033h.049c.025 0 .049-.006.074-.006a5.957 5.957 0 0 0 .832-.067l.064-.007a6.026 6.026 0 0 0 .838-.206l.153-.05a5.969 5.969 0 0 0 .8-.341c.036-.018.07-.041.106-.06a6.1 6.1 0 0 0 .713-.457c.021-.016.045-.027.067-.043s.021-.02.033-.029l.035-.024c.068-.054.128-.114.194-.17s.161-.135.237-.207.136-.14.2-.211.144-.149.211-.226.12-.153.18-.229.125-.158.183-.24.105-.165.157-.248.106-.164.154-.249.089-.176.133-.264.087-.17.125-.257.073-.185.108-.278.069-.173.1-.262.055-.19.081-.286.052-.179.072-.27.036-.192.053-.289.034-.185.046-.279.017-.191.024-.287.018-.191.02-.287 0-.19 0-.286 0-.194-.007-.291-.02-.191-.031-.286-.02-.192-.036-.288-.038-.19-.059-.286-.038-.189-.063-.283-.058-.189-.089-.284-.056-.184-.09-.274-.079-.189-.12-.283-.073-.175-.115-.261-.1-.185-.152-.277-.091-.167-.142-.249-.12-.176-.182-.264c-.048-.069-.091-.14-.143-.208l-42.56-55.576a14 14 0 0 1 22.23-17.023l42.56 55.575a6.156 6.156 0 0 0 .44.509c.05.052.1.1.154.148.108.1.216.206.33.3.063.052.128.1.193.152a6.3 6.3 0 0 0 .542.371 6.5 6.5 0 0 0 .356.2c.07.036.139.073.21.107.135.063.273.118.412.17.059.023.117.049.177.069a5.815 5.815 0 0 0 .606.174c.029.007.059.01.088.016.176.038.354.069.533.091.071.009.143.012.214.018.139.012.278.021.417.023.032 0 .064.006.1.006s.063-.007.095-.008a5.915 5.915 0 0 0 .85-.068l.032-.006a5.988 5.988 0 0 0 .818-.2c.05-.016.1-.03.151-.047a5.979 5.979 0 0 0 .784-.335c.05-.026.1-.054.147-.081a5.91 5.91 0 0 0 .766-.491 6 6 0 0 0 1.116-8.412L340.792 284.2a14 14 0 1 1 22.23-17.024l42.56 55.575a6 6 0 1 0 9.527-7.3l-36.48-47.636a14 14 0 1 1 22.23-17.024l60.8 79.394a74.083 74.083 0 0 1-13.759 103.75Z" class="color1ae5be svgShape"></path></svg></g></svg>